# xmcd CD database file
#
# Track frame offsets:
#	150
#	13003
#	26704
#	38490
#	53070
#	60361
#	77256
#	89344
#	104035
#	116074
#	135200
#	146326
#	157066
#
# Disc length: 2291 seconds
#
# Revision: 0
# Processed by: cddbd v1.5.2PL0 Copyright (c) Steve Scherf et al.
# Submitted via: CDex 1.51
#
DISCID=9c08f10d
DTITLE=Various Artist - CitySky01
DYEAR=1995
DGENRE=Country
TTITLE0=BLOWING IN THE WIND 隨風飄逝
TTITLE1=BOTH SIDE NOW 左右為難
TTITLE2=WELCOME TO MY WORLD 歡迎加入我的世界
TTITLE3=DONNA DONNA 多娜多娜
TTITLE4=ALL I HAVE TO DO IS DREAM 沉醉夢中
TTITLE5=CARRY ON TILL TOMORROW 堅持到明天
TTITLE6=GONA THEN RAINBOW 消失的彩虹
TTITLE7=PUFF 波夫
TTITLE8=AS TEARS GO BY 春夢淚痕
TTITLE9=STREET OF LONDON 倫敦大街
TTITLE10=IF 如果
TTITLE11=EVER GREEN TREE 長春樹
TTITLE12=TODAY 今日
EXTD=YEAR: 1995
EXTT0=
EXTT1=
EXTT2=
EXTT3=
EXTT4=
EXTT5=
EXTT6=
EXTT7=
EXTT8=
EXTT9=
EXTT10=
EXTT11=
EXTT12=
PLAYORDER=
